G04 #@! TF.GenerationSoftware,KiCad,Pcbnew,5.0.0-rc2-dev-unknown-r12647-81843c37*
G04 #@! TF.CreationDate,2018-05-28T15:16:23-04:00*
G04 #@! TF.ProjectId,Peapod PCB,506561706F64205043422E6B69636164,rev?*
G04 #@! TF.SameCoordinates,Original*
G04 #@! TF.FileFunction,Legend,Bot*
G04 #@! TF.FilePolarity,Positive*
%FSLAX46Y46*%
G04 Gerber Fmt 4.6, Leading zero omitted, Abs format (unit mm)*
G04 Created by KiCad (PCBNEW 5.0.0-rc2-dev-unknown-r12647-81843c37) date Mon May 28 15:16:23 2018*
%MOMM*%
%LPD*%
G01*
G04 APERTURE LIST*
%ADD10C,0.177800*%
%ADD11C,0.250000*%
%ADD12C,0.300000*%
%ADD13C,0.500000*%
%ADD14C,0.150000*%
%ADD15C,0.120000*%
G04 APERTURE END LIST*
D10*
X177310142Y-48304580D02*
X177310142Y-47304580D01*
X177310142Y-47780771D02*
X176744085Y-47780771D01*
X176744085Y-48304580D02*
X176744085Y-47304580D01*
X175847828Y-48304580D02*
X175847828Y-47780771D01*
X175895000Y-47685533D01*
X175989342Y-47637914D01*
X176178028Y-47637914D01*
X176272371Y-47685533D01*
X175847828Y-48256961D02*
X175942171Y-48304580D01*
X176178028Y-48304580D01*
X176272371Y-48256961D01*
X176319542Y-48161723D01*
X176319542Y-48066485D01*
X176272371Y-47971247D01*
X176178028Y-47923628D01*
X175942171Y-47923628D01*
X175847828Y-47876009D01*
X175376114Y-48304580D02*
X175376114Y-47637914D01*
X175376114Y-47828390D02*
X175328942Y-47733152D01*
X175281771Y-47685533D01*
X175187428Y-47637914D01*
X175093085Y-47637914D01*
X174338342Y-48304580D02*
X174338342Y-47304580D01*
X174338342Y-48256961D02*
X174432685Y-48304580D01*
X174621371Y-48304580D01*
X174715714Y-48256961D01*
X174762885Y-48209342D01*
X174810057Y-48114104D01*
X174810057Y-47828390D01*
X174762885Y-47733152D01*
X174715714Y-47685533D01*
X174621371Y-47637914D01*
X174432685Y-47637914D01*
X174338342Y-47685533D01*
X173960971Y-47637914D02*
X173772285Y-48304580D01*
X173583600Y-47828390D01*
X173394914Y-48304580D01*
X173206228Y-47637914D01*
X172404314Y-48304580D02*
X172404314Y-47780771D01*
X172451485Y-47685533D01*
X172545828Y-47637914D01*
X172734514Y-47637914D01*
X172828857Y-47685533D01*
X172404314Y-48256961D02*
X172498657Y-48304580D01*
X172734514Y-48304580D01*
X172828857Y-48256961D01*
X172876028Y-48161723D01*
X172876028Y-48066485D01*
X172828857Y-47971247D01*
X172734514Y-47923628D01*
X172498657Y-47923628D01*
X172404314Y-47876009D01*
X171932600Y-48304580D02*
X171932600Y-47637914D01*
X171932600Y-47828390D02*
X171885428Y-47733152D01*
X171838257Y-47685533D01*
X171743914Y-47637914D01*
X171649571Y-47637914D01*
X170942000Y-48256961D02*
X171036342Y-48304580D01*
X171225028Y-48304580D01*
X171319371Y-48256961D01*
X171366542Y-48161723D01*
X171366542Y-47780771D01*
X171319371Y-47685533D01*
X171225028Y-47637914D01*
X171036342Y-47637914D01*
X170942000Y-47685533D01*
X170894828Y-47780771D01*
X170894828Y-47876009D01*
X171366542Y-47971247D01*
X169291000Y-48304580D02*
X169291000Y-47780771D01*
X169338171Y-47685533D01*
X169432514Y-47637914D01*
X169621200Y-47637914D01*
X169715542Y-47685533D01*
X169291000Y-48256961D02*
X169385342Y-48304580D01*
X169621200Y-48304580D01*
X169715542Y-48256961D01*
X169762714Y-48161723D01*
X169762714Y-48066485D01*
X169715542Y-47971247D01*
X169621200Y-47923628D01*
X169385342Y-47923628D01*
X169291000Y-47876009D01*
X168819285Y-47637914D02*
X168819285Y-48304580D01*
X168819285Y-47733152D02*
X168772114Y-47685533D01*
X168677771Y-47637914D01*
X168536257Y-47637914D01*
X168441914Y-47685533D01*
X168394742Y-47780771D01*
X168394742Y-48304580D01*
X167498485Y-48304580D02*
X167498485Y-47304580D01*
X167498485Y-48256961D02*
X167592828Y-48304580D01*
X167781514Y-48304580D01*
X167875857Y-48256961D01*
X167923028Y-48209342D01*
X167970200Y-48114104D01*
X167970200Y-47828390D01*
X167923028Y-47733152D01*
X167875857Y-47685533D01*
X167781514Y-47637914D01*
X167592828Y-47637914D01*
X167498485Y-47685533D01*
X166413542Y-47637914D02*
X166036171Y-47637914D01*
X166272028Y-48304580D02*
X166272028Y-47447438D01*
X166224857Y-47352200D01*
X166130514Y-47304580D01*
X166036171Y-47304580D01*
X165705971Y-48304580D02*
X165705971Y-47637914D01*
X165705971Y-47304580D02*
X165753142Y-47352200D01*
X165705971Y-47399819D01*
X165658800Y-47352200D01*
X165705971Y-47304580D01*
X165705971Y-47399819D01*
X165234257Y-48304580D02*
X165234257Y-47637914D01*
X165234257Y-47828390D02*
X165187085Y-47733152D01*
X165139914Y-47685533D01*
X165045571Y-47637914D01*
X164951228Y-47637914D01*
X164621028Y-48304580D02*
X164621028Y-47637914D01*
X164621028Y-47733152D02*
X164573857Y-47685533D01*
X164479514Y-47637914D01*
X164338000Y-47637914D01*
X164243657Y-47685533D01*
X164196485Y-47780771D01*
X164196485Y-48304580D01*
X164196485Y-47780771D02*
X164149314Y-47685533D01*
X164054971Y-47637914D01*
X163913457Y-47637914D01*
X163819114Y-47685533D01*
X163771942Y-47780771D01*
X163771942Y-48304580D01*
X163394571Y-47637914D02*
X163205885Y-48304580D01*
X163017200Y-47828390D01*
X162828514Y-48304580D01*
X162639828Y-47637914D01*
X161837914Y-48304580D02*
X161837914Y-47780771D01*
X161885085Y-47685533D01*
X161979428Y-47637914D01*
X162168114Y-47637914D01*
X162262457Y-47685533D01*
X161837914Y-48256961D02*
X161932257Y-48304580D01*
X162168114Y-48304580D01*
X162262457Y-48256961D01*
X162309628Y-48161723D01*
X162309628Y-48066485D01*
X162262457Y-47971247D01*
X162168114Y-47923628D01*
X161932257Y-47923628D01*
X161837914Y-47876009D01*
X161366200Y-48304580D02*
X161366200Y-47637914D01*
X161366200Y-47828390D02*
X161319028Y-47733152D01*
X161271857Y-47685533D01*
X161177514Y-47637914D01*
X161083171Y-47637914D01*
X160375600Y-48256961D02*
X160469942Y-48304580D01*
X160658628Y-48304580D01*
X160752971Y-48256961D01*
X160800142Y-48161723D01*
X160800142Y-47780771D01*
X160752971Y-47685533D01*
X160658628Y-47637914D01*
X160469942Y-47637914D01*
X160375600Y-47685533D01*
X160328428Y-47780771D01*
X160328428Y-47876009D01*
X160800142Y-47971247D01*
X159149142Y-48304580D02*
X159149142Y-47304580D01*
X159149142Y-47685533D02*
X159054800Y-47637914D01*
X158866114Y-47637914D01*
X158771771Y-47685533D01*
X158724600Y-47733152D01*
X158677428Y-47828390D01*
X158677428Y-48114104D01*
X158724600Y-48209342D01*
X158771771Y-48256961D01*
X158866114Y-48304580D01*
X159054800Y-48304580D01*
X159149142Y-48256961D01*
X158347228Y-47637914D02*
X158111371Y-48304580D01*
X157875514Y-47637914D02*
X158111371Y-48304580D01*
X158205714Y-48542676D01*
X158252885Y-48590295D01*
X158347228Y-48637914D01*
X180399871Y-49458571D02*
X180069671Y-49458571D01*
X179928157Y-49982380D02*
X180399871Y-49982380D01*
X180399871Y-48982380D01*
X179928157Y-48982380D01*
X179645128Y-49315714D02*
X179267757Y-49315714D01*
X179503614Y-48982380D02*
X179503614Y-49839523D01*
X179456442Y-49934761D01*
X179362100Y-49982380D01*
X179267757Y-49982380D01*
X178937557Y-49982380D02*
X178937557Y-48982380D01*
X178513014Y-49982380D02*
X178513014Y-49458571D01*
X178560185Y-49363333D01*
X178654528Y-49315714D01*
X178796042Y-49315714D01*
X178890385Y-49363333D01*
X178937557Y-49410952D01*
X177616757Y-49982380D02*
X177616757Y-49458571D01*
X177663928Y-49363333D01*
X177758271Y-49315714D01*
X177946957Y-49315714D01*
X178041300Y-49363333D01*
X177616757Y-49934761D02*
X177711100Y-49982380D01*
X177946957Y-49982380D01*
X178041300Y-49934761D01*
X178088471Y-49839523D01*
X178088471Y-49744285D01*
X178041300Y-49649047D01*
X177946957Y-49601428D01*
X177711100Y-49601428D01*
X177616757Y-49553809D01*
X177145042Y-49315714D02*
X177145042Y-49982380D01*
X177145042Y-49410952D02*
X177097871Y-49363333D01*
X177003528Y-49315714D01*
X176862014Y-49315714D01*
X176767671Y-49363333D01*
X176720500Y-49458571D01*
X176720500Y-49982380D01*
X174927985Y-49887142D02*
X174975157Y-49934761D01*
X175116671Y-49982380D01*
X175211014Y-49982380D01*
X175352528Y-49934761D01*
X175446871Y-49839523D01*
X175494042Y-49744285D01*
X175541214Y-49553809D01*
X175541214Y-49410952D01*
X175494042Y-49220476D01*
X175446871Y-49125238D01*
X175352528Y-49030000D01*
X175211014Y-48982380D01*
X175116671Y-48982380D01*
X174975157Y-49030000D01*
X174927985Y-49077619D01*
X174503442Y-49982380D02*
X174503442Y-48982380D01*
X174078900Y-49982380D02*
X174078900Y-49458571D01*
X174126071Y-49363333D01*
X174220414Y-49315714D01*
X174361928Y-49315714D01*
X174456271Y-49363333D01*
X174503442Y-49410952D01*
X173607185Y-49982380D02*
X173607185Y-49315714D01*
X173607185Y-48982380D02*
X173654357Y-49030000D01*
X173607185Y-49077619D01*
X173560014Y-49030000D01*
X173607185Y-48982380D01*
X173607185Y-49077619D01*
X172993957Y-49982380D02*
X173088300Y-49934761D01*
X173135471Y-49839523D01*
X173135471Y-48982380D01*
X172192042Y-49982380D02*
X172192042Y-48982380D01*
X172192042Y-49934761D02*
X172286385Y-49982380D01*
X172475071Y-49982380D01*
X172569414Y-49934761D01*
X172616585Y-49887142D01*
X172663757Y-49791904D01*
X172663757Y-49506190D01*
X172616585Y-49410952D01*
X172569414Y-49363333D01*
X172475071Y-49315714D01*
X172286385Y-49315714D01*
X172192042Y-49363333D01*
X171342957Y-49934761D02*
X171437300Y-49982380D01*
X171625985Y-49982380D01*
X171720328Y-49934761D01*
X171767500Y-49839523D01*
X171767500Y-49458571D01*
X171720328Y-49363333D01*
X171625985Y-49315714D01*
X171437300Y-49315714D01*
X171342957Y-49363333D01*
X171295785Y-49458571D01*
X171295785Y-49553809D01*
X171767500Y-49649047D01*
X170871242Y-49982380D02*
X170871242Y-49315714D01*
X170871242Y-49506190D02*
X170824071Y-49410952D01*
X170776900Y-49363333D01*
X170682557Y-49315714D01*
X170588214Y-49315714D01*
X170258014Y-49982380D02*
X170258014Y-48982380D01*
X169833471Y-49982380D02*
X169833471Y-49458571D01*
X169880642Y-49363333D01*
X169974985Y-49315714D01*
X170116500Y-49315714D01*
X170210842Y-49363333D01*
X170258014Y-49410952D01*
X169220242Y-49982380D02*
X169314585Y-49934761D01*
X169361757Y-49887142D01*
X169408928Y-49791904D01*
X169408928Y-49506190D01*
X169361757Y-49410952D01*
X169314585Y-49363333D01*
X169220242Y-49315714D01*
X169078728Y-49315714D01*
X168984385Y-49363333D01*
X168937214Y-49410952D01*
X168890042Y-49506190D01*
X168890042Y-49791904D01*
X168937214Y-49887142D01*
X168984385Y-49934761D01*
X169078728Y-49982380D01*
X169220242Y-49982380D01*
X168512671Y-49934761D02*
X168418328Y-49982380D01*
X168229642Y-49982380D01*
X168135300Y-49934761D01*
X168088128Y-49839523D01*
X168088128Y-49791904D01*
X168135300Y-49696666D01*
X168229642Y-49649047D01*
X168371157Y-49649047D01*
X168465500Y-49601428D01*
X168512671Y-49506190D01*
X168512671Y-49458571D01*
X168465500Y-49363333D01*
X168371157Y-49315714D01*
X168229642Y-49315714D01*
X168135300Y-49363333D01*
X167286214Y-49934761D02*
X167380557Y-49982380D01*
X167569242Y-49982380D01*
X167663585Y-49934761D01*
X167710757Y-49839523D01*
X167710757Y-49458571D01*
X167663585Y-49363333D01*
X167569242Y-49315714D01*
X167380557Y-49315714D01*
X167286214Y-49363333D01*
X167239042Y-49458571D01*
X167239042Y-49553809D01*
X167710757Y-49649047D01*
X166767328Y-49934761D02*
X166767328Y-49982380D01*
X166814500Y-50077619D01*
X166861671Y-50125238D01*
X165635214Y-49934761D02*
X165493700Y-49982380D01*
X165257842Y-49982380D01*
X165163500Y-49934761D01*
X165116328Y-49887142D01*
X165069157Y-49791904D01*
X165069157Y-49696666D01*
X165116328Y-49601428D01*
X165163500Y-49553809D01*
X165257842Y-49506190D01*
X165446528Y-49458571D01*
X165540871Y-49410952D01*
X165588042Y-49363333D01*
X165635214Y-49268095D01*
X165635214Y-49172857D01*
X165588042Y-49077619D01*
X165540871Y-49030000D01*
X165446528Y-48982380D01*
X165210671Y-48982380D01*
X165069157Y-49030000D01*
X164220071Y-49982380D02*
X164220071Y-49458571D01*
X164267242Y-49363333D01*
X164361585Y-49315714D01*
X164550271Y-49315714D01*
X164644614Y-49363333D01*
X164220071Y-49934761D02*
X164314414Y-49982380D01*
X164550271Y-49982380D01*
X164644614Y-49934761D01*
X164691785Y-49839523D01*
X164691785Y-49744285D01*
X164644614Y-49649047D01*
X164550271Y-49601428D01*
X164314414Y-49601428D01*
X164220071Y-49553809D01*
X163748357Y-49982380D02*
X163748357Y-49315714D01*
X163748357Y-49410952D02*
X163701185Y-49363333D01*
X163606842Y-49315714D01*
X163465328Y-49315714D01*
X163370985Y-49363333D01*
X163323814Y-49458571D01*
X163323814Y-49982380D01*
X163323814Y-49458571D02*
X163276642Y-49363333D01*
X163182300Y-49315714D01*
X163040785Y-49315714D01*
X162946442Y-49363333D01*
X162899271Y-49458571D01*
X162899271Y-49982380D01*
X162003014Y-49982380D02*
X162003014Y-49458571D01*
X162050185Y-49363333D01*
X162144528Y-49315714D01*
X162333214Y-49315714D01*
X162427557Y-49363333D01*
X162003014Y-49934761D02*
X162097357Y-49982380D01*
X162333214Y-49982380D01*
X162427557Y-49934761D01*
X162474728Y-49839523D01*
X162474728Y-49744285D01*
X162427557Y-49649047D01*
X162333214Y-49601428D01*
X162097357Y-49601428D01*
X162003014Y-49553809D01*
X161531300Y-49315714D02*
X161531300Y-49982380D01*
X161531300Y-49410952D02*
X161484128Y-49363333D01*
X161389785Y-49315714D01*
X161248271Y-49315714D01*
X161153928Y-49363333D01*
X161106757Y-49458571D01*
X161106757Y-49982380D01*
X160776557Y-49315714D02*
X160399185Y-49315714D01*
X160635042Y-48982380D02*
X160635042Y-49839523D01*
X160587871Y-49934761D01*
X160493528Y-49982380D01*
X160399185Y-49982380D01*
X160068985Y-49982380D02*
X160068985Y-48982380D01*
X159644442Y-49982380D02*
X159644442Y-49458571D01*
X159691614Y-49363333D01*
X159785957Y-49315714D01*
X159927471Y-49315714D01*
X160021814Y-49363333D01*
X160068985Y-49410952D01*
X158748185Y-49982380D02*
X158748185Y-49458571D01*
X158795357Y-49363333D01*
X158889700Y-49315714D01*
X159078385Y-49315714D01*
X159172728Y-49363333D01*
X158748185Y-49934761D02*
X158842528Y-49982380D01*
X159078385Y-49982380D01*
X159172728Y-49934761D01*
X159219900Y-49839523D01*
X159219900Y-49744285D01*
X159172728Y-49649047D01*
X159078385Y-49601428D01*
X158842528Y-49601428D01*
X158748185Y-49553809D01*
X157333042Y-49506190D02*
X157333042Y-49982380D01*
X157663242Y-48982380D02*
X157333042Y-49506190D01*
X157002842Y-48982380D01*
X156248100Y-49982380D02*
X156248100Y-49458571D01*
X156295271Y-49363333D01*
X156389614Y-49315714D01*
X156578300Y-49315714D01*
X156672642Y-49363333D01*
X156248100Y-49934761D02*
X156342442Y-49982380D01*
X156578300Y-49982380D01*
X156672642Y-49934761D01*
X156719814Y-49839523D01*
X156719814Y-49744285D01*
X156672642Y-49649047D01*
X156578300Y-49601428D01*
X156342442Y-49601428D01*
X156248100Y-49553809D01*
X155634871Y-49982380D02*
X155729214Y-49934761D01*
X155776385Y-49887142D01*
X155823557Y-49791904D01*
X155823557Y-49506190D01*
X155776385Y-49410952D01*
X155729214Y-49363333D01*
X155634871Y-49315714D01*
X155493357Y-49315714D01*
X155399014Y-49363333D01*
X155351842Y-49410952D01*
X155304671Y-49506190D01*
X155304671Y-49791904D01*
X155351842Y-49887142D01*
X155399014Y-49934761D01*
X155493357Y-49982380D01*
X155634871Y-49982380D01*
X154832957Y-49934761D02*
X154832957Y-49982380D01*
X154880128Y-50077619D01*
X154927300Y-50125238D01*
X177970542Y-51136371D02*
X177640342Y-51136371D01*
X177498828Y-51660180D02*
X177970542Y-51660180D01*
X177970542Y-50660180D01*
X177498828Y-50660180D01*
X177074285Y-51660180D02*
X177074285Y-50993514D01*
X177074285Y-51183990D02*
X177027114Y-51088752D01*
X176979942Y-51041133D01*
X176885600Y-50993514D01*
X176791257Y-50993514D01*
X176461057Y-51660180D02*
X176461057Y-50993514D01*
X176461057Y-50660180D02*
X176508228Y-50707800D01*
X176461057Y-50755419D01*
X176413885Y-50707800D01*
X176461057Y-50660180D01*
X176461057Y-50755419D01*
X175564800Y-51612561D02*
X175659142Y-51660180D01*
X175847828Y-51660180D01*
X175942171Y-51612561D01*
X175989342Y-51564942D01*
X176036514Y-51469704D01*
X176036514Y-51183990D01*
X175989342Y-51088752D01*
X175942171Y-51041133D01*
X175847828Y-50993514D01*
X175659142Y-50993514D01*
X175564800Y-51041133D01*
X174055314Y-51136371D02*
X173913800Y-51183990D01*
X173866628Y-51231609D01*
X173819457Y-51326847D01*
X173819457Y-51469704D01*
X173866628Y-51564942D01*
X173913800Y-51612561D01*
X174008142Y-51660180D01*
X174385514Y-51660180D01*
X174385514Y-50660180D01*
X174055314Y-50660180D01*
X173960971Y-50707800D01*
X173913800Y-50755419D01*
X173866628Y-50850657D01*
X173866628Y-50945895D01*
X173913800Y-51041133D01*
X173960971Y-51088752D01*
X174055314Y-51136371D01*
X174385514Y-51136371D01*
X173394914Y-51660180D02*
X173394914Y-50993514D01*
X173394914Y-51183990D02*
X173347742Y-51088752D01*
X173300571Y-51041133D01*
X173206228Y-50993514D01*
X173111885Y-50993514D01*
X172357142Y-51660180D02*
X172357142Y-51136371D01*
X172404314Y-51041133D01*
X172498657Y-50993514D01*
X172687342Y-50993514D01*
X172781685Y-51041133D01*
X172357142Y-51612561D02*
X172451485Y-51660180D01*
X172687342Y-51660180D01*
X172781685Y-51612561D01*
X172828857Y-51517323D01*
X172828857Y-51422085D01*
X172781685Y-51326847D01*
X172687342Y-51279228D01*
X172451485Y-51279228D01*
X172357142Y-51231609D01*
X171460885Y-50993514D02*
X171460885Y-51660180D01*
X171885428Y-50993514D02*
X171885428Y-51517323D01*
X171838257Y-51612561D01*
X171743914Y-51660180D01*
X171602400Y-51660180D01*
X171508057Y-51612561D01*
X171460885Y-51564942D01*
X170611800Y-51612561D02*
X170706142Y-51660180D01*
X170894828Y-51660180D01*
X170989171Y-51612561D01*
X171036342Y-51517323D01*
X171036342Y-51136371D01*
X170989171Y-51041133D01*
X170894828Y-50993514D01*
X170706142Y-50993514D01*
X170611800Y-51041133D01*
X170564628Y-51136371D01*
X170564628Y-51231609D01*
X171036342Y-51326847D01*
X170140085Y-51660180D02*
X170140085Y-50993514D01*
X170140085Y-51183990D02*
X170092914Y-51088752D01*
X170045742Y-51041133D01*
X169951400Y-50993514D01*
X169857057Y-50993514D01*
X169479685Y-51612561D02*
X169479685Y-51660180D01*
X169526857Y-51755419D01*
X169574028Y-51803038D01*
X167875857Y-51660180D02*
X167875857Y-51136371D01*
X167923028Y-51041133D01*
X168017371Y-50993514D01*
X168206057Y-50993514D01*
X168300400Y-51041133D01*
X167875857Y-51612561D02*
X167970200Y-51660180D01*
X168206057Y-51660180D01*
X168300400Y-51612561D01*
X168347571Y-51517323D01*
X168347571Y-51422085D01*
X168300400Y-51326847D01*
X168206057Y-51279228D01*
X167970200Y-51279228D01*
X167875857Y-51231609D01*
X167404142Y-50993514D02*
X167404142Y-51660180D01*
X167404142Y-51088752D02*
X167356971Y-51041133D01*
X167262628Y-50993514D01*
X167121114Y-50993514D01*
X167026771Y-51041133D01*
X166979600Y-51136371D01*
X166979600Y-51660180D01*
X166083342Y-51660180D02*
X166083342Y-50660180D01*
X166083342Y-51612561D02*
X166177685Y-51660180D01*
X166366371Y-51660180D01*
X166460714Y-51612561D01*
X166507885Y-51564942D01*
X166555057Y-51469704D01*
X166555057Y-51183990D01*
X166507885Y-51088752D01*
X166460714Y-51041133D01*
X166366371Y-50993514D01*
X166177685Y-50993514D01*
X166083342Y-51041133D01*
X164290828Y-51564942D02*
X164338000Y-51612561D01*
X164479514Y-51660180D01*
X164573857Y-51660180D01*
X164715371Y-51612561D01*
X164809714Y-51517323D01*
X164856885Y-51422085D01*
X164904057Y-51231609D01*
X164904057Y-51088752D01*
X164856885Y-50898276D01*
X164809714Y-50803038D01*
X164715371Y-50707800D01*
X164573857Y-50660180D01*
X164479514Y-50660180D01*
X164338000Y-50707800D01*
X164290828Y-50755419D01*
X163866285Y-51660180D02*
X163866285Y-50660180D01*
X163441742Y-51660180D02*
X163441742Y-51136371D01*
X163488914Y-51041133D01*
X163583257Y-50993514D01*
X163724771Y-50993514D01*
X163819114Y-51041133D01*
X163866285Y-51088752D01*
X162970028Y-51660180D02*
X162970028Y-50993514D01*
X162970028Y-51183990D02*
X162922857Y-51088752D01*
X162875685Y-51041133D01*
X162781342Y-50993514D01*
X162687000Y-50993514D01*
X162356800Y-51660180D02*
X162356800Y-50993514D01*
X162356800Y-50660180D02*
X162403971Y-50707800D01*
X162356800Y-50755419D01*
X162309628Y-50707800D01*
X162356800Y-50660180D01*
X162356800Y-50755419D01*
X161932257Y-51612561D02*
X161837914Y-51660180D01*
X161649228Y-51660180D01*
X161554885Y-51612561D01*
X161507714Y-51517323D01*
X161507714Y-51469704D01*
X161554885Y-51374466D01*
X161649228Y-51326847D01*
X161790742Y-51326847D01*
X161885085Y-51279228D01*
X161932257Y-51183990D01*
X161932257Y-51136371D01*
X161885085Y-51041133D01*
X161790742Y-50993514D01*
X161649228Y-50993514D01*
X161554885Y-51041133D01*
X160469942Y-50660180D02*
X159903885Y-50660180D01*
X160186914Y-51660180D02*
X160186914Y-50660180D01*
X159668028Y-50993514D02*
X159432171Y-51660180D01*
X159196314Y-50993514D02*
X159432171Y-51660180D01*
X159526514Y-51898276D01*
X159573685Y-51945895D01*
X159668028Y-51993514D01*
X158677428Y-51660180D02*
X158771771Y-51612561D01*
X158818942Y-51517323D01*
X158818942Y-50660180D01*
X157922685Y-51612561D02*
X158017028Y-51660180D01*
X158205714Y-51660180D01*
X158300057Y-51612561D01*
X158347228Y-51517323D01*
X158347228Y-51136371D01*
X158300057Y-51041133D01*
X158205714Y-50993514D01*
X158017028Y-50993514D01*
X157922685Y-51041133D01*
X157875514Y-51136371D01*
X157875514Y-51231609D01*
X158347228Y-51326847D01*
X157450971Y-51660180D02*
X157450971Y-50993514D01*
X157450971Y-51183990D02*
X157403800Y-51088752D01*
X157356628Y-51041133D01*
X157262285Y-50993514D01*
X157167942Y-50993514D01*
D11*
X203628095Y-48994380D02*
X203628095Y-47994380D01*
X203247142Y-47994380D01*
X203151904Y-48042000D01*
X203104285Y-48089619D01*
X203056666Y-48184857D01*
X203056666Y-48327714D01*
X203104285Y-48422952D01*
X203151904Y-48470571D01*
X203247142Y-48518190D01*
X203628095Y-48518190D01*
X202199523Y-48327714D02*
X202199523Y-48994380D01*
X202628095Y-48327714D02*
X202628095Y-48851523D01*
X202580476Y-48946761D01*
X202485238Y-48994380D01*
X202342380Y-48994380D01*
X202247142Y-48946761D01*
X202199523Y-48899142D01*
X201580476Y-48994380D02*
X201675714Y-48946761D01*
X201723333Y-48851523D01*
X201723333Y-47994380D01*
X201056666Y-48994380D02*
X201151904Y-48946761D01*
X201199523Y-48851523D01*
X201199523Y-47994380D01*
X199390000Y-48042000D02*
X199485238Y-47994380D01*
X199628095Y-47994380D01*
X199770952Y-48042000D01*
X199866190Y-48137238D01*
X199913809Y-48232476D01*
X199961428Y-48422952D01*
X199961428Y-48565809D01*
X199913809Y-48756285D01*
X199866190Y-48851523D01*
X199770952Y-48946761D01*
X199628095Y-48994380D01*
X199532857Y-48994380D01*
X199390000Y-48946761D01*
X199342380Y-48899142D01*
X199342380Y-48565809D01*
X199532857Y-48565809D01*
X198913809Y-48994380D02*
X198913809Y-47994380D01*
X198532857Y-47994380D01*
X198437619Y-48042000D01*
X198390000Y-48089619D01*
X198342380Y-48184857D01*
X198342380Y-48327714D01*
X198390000Y-48422952D01*
X198437619Y-48470571D01*
X198532857Y-48518190D01*
X198913809Y-48518190D01*
X197913809Y-48994380D02*
X197913809Y-47994380D01*
X197247142Y-47994380D02*
X197056666Y-47994380D01*
X196961428Y-48042000D01*
X196866190Y-48137238D01*
X196818571Y-48327714D01*
X196818571Y-48661047D01*
X196866190Y-48851523D01*
X196961428Y-48946761D01*
X197056666Y-48994380D01*
X197247142Y-48994380D01*
X197342380Y-48946761D01*
X197437619Y-48851523D01*
X197485238Y-48661047D01*
X197485238Y-48327714D01*
X197437619Y-48137238D01*
X197342380Y-48042000D01*
X197247142Y-47994380D01*
X196199523Y-47994380D02*
X196104285Y-47994380D01*
X196009047Y-48042000D01*
X195961428Y-48089619D01*
X195913809Y-48184857D01*
X195866190Y-48375333D01*
X195866190Y-48613428D01*
X195913809Y-48803904D01*
X195961428Y-48899142D01*
X196009047Y-48946761D01*
X196104285Y-48994380D01*
X196199523Y-48994380D01*
X196294761Y-48946761D01*
X196342380Y-48899142D01*
X196390000Y-48803904D01*
X196437619Y-48613428D01*
X196437619Y-48375333D01*
X196390000Y-48184857D01*
X196342380Y-48089619D01*
X196294761Y-48042000D01*
X196199523Y-47994380D01*
X201747142Y-50744380D02*
X201842380Y-50696761D01*
X201890000Y-50601523D01*
X201890000Y-49744380D01*
X201223333Y-50744380D02*
X201318571Y-50696761D01*
X201366190Y-50649142D01*
X201413809Y-50553904D01*
X201413809Y-50268190D01*
X201366190Y-50172952D01*
X201318571Y-50125333D01*
X201223333Y-50077714D01*
X201080476Y-50077714D01*
X200985238Y-50125333D01*
X200937619Y-50172952D01*
X200890000Y-50268190D01*
X200890000Y-50553904D01*
X200937619Y-50649142D01*
X200985238Y-50696761D01*
X201080476Y-50744380D01*
X201223333Y-50744380D01*
X200556666Y-50077714D02*
X200366190Y-50744380D01*
X200175714Y-50268190D01*
X199985238Y-50744380D01*
X199794761Y-50077714D01*
X198794761Y-50077714D02*
X198413809Y-50077714D01*
X198651904Y-49744380D02*
X198651904Y-50601523D01*
X198604285Y-50696761D01*
X198509047Y-50744380D01*
X198413809Y-50744380D01*
X197937619Y-50744380D02*
X198032857Y-50696761D01*
X198080476Y-50649142D01*
X198128095Y-50553904D01*
X198128095Y-50268190D01*
X198080476Y-50172952D01*
X198032857Y-50125333D01*
X197937619Y-50077714D01*
X197794761Y-50077714D01*
X197699523Y-50125333D01*
X197651904Y-50172952D01*
X197604285Y-50268190D01*
X197604285Y-50553904D01*
X197651904Y-50649142D01*
X197699523Y-50696761D01*
X197794761Y-50744380D01*
X197937619Y-50744380D01*
X202413809Y-52494380D02*
X202413809Y-51494380D01*
X202413809Y-51875333D02*
X202318571Y-51827714D01*
X202128095Y-51827714D01*
X202032857Y-51875333D01*
X201985238Y-51922952D01*
X201937619Y-52018190D01*
X201937619Y-52303904D01*
X201985238Y-52399142D01*
X202032857Y-52446761D01*
X202128095Y-52494380D01*
X202318571Y-52494380D01*
X202413809Y-52446761D01*
X201366190Y-52494380D02*
X201461428Y-52446761D01*
X201509047Y-52399142D01*
X201556666Y-52303904D01*
X201556666Y-52018190D01*
X201509047Y-51922952D01*
X201461428Y-51875333D01*
X201366190Y-51827714D01*
X201223333Y-51827714D01*
X201128095Y-51875333D01*
X201080476Y-51922952D01*
X201032857Y-52018190D01*
X201032857Y-52303904D01*
X201080476Y-52399142D01*
X201128095Y-52446761D01*
X201223333Y-52494380D01*
X201366190Y-52494380D01*
X200461428Y-52494380D02*
X200556666Y-52446761D01*
X200604285Y-52399142D01*
X200651904Y-52303904D01*
X200651904Y-52018190D01*
X200604285Y-51922952D01*
X200556666Y-51875333D01*
X200461428Y-51827714D01*
X200318571Y-51827714D01*
X200223333Y-51875333D01*
X200175714Y-51922952D01*
X200128095Y-52018190D01*
X200128095Y-52303904D01*
X200175714Y-52399142D01*
X200223333Y-52446761D01*
X200318571Y-52494380D01*
X200461428Y-52494380D01*
X199842380Y-51827714D02*
X199461428Y-51827714D01*
X199699523Y-51494380D02*
X199699523Y-52351523D01*
X199651904Y-52446761D01*
X199556666Y-52494380D01*
X199461428Y-52494380D01*
X198985238Y-52494380D02*
X199080476Y-52446761D01*
X199128095Y-52351523D01*
X199128095Y-51494380D01*
X198461428Y-52494380D02*
X198556666Y-52446761D01*
X198604285Y-52399142D01*
X198651904Y-52303904D01*
X198651904Y-52018190D01*
X198604285Y-51922952D01*
X198556666Y-51875333D01*
X198461428Y-51827714D01*
X198318571Y-51827714D01*
X198223333Y-51875333D01*
X198175714Y-51922952D01*
X198128095Y-52018190D01*
X198128095Y-52303904D01*
X198175714Y-52399142D01*
X198223333Y-52446761D01*
X198318571Y-52494380D01*
X198461428Y-52494380D01*
X197270952Y-52494380D02*
X197270952Y-51970571D01*
X197318571Y-51875333D01*
X197413809Y-51827714D01*
X197604285Y-51827714D01*
X197699523Y-51875333D01*
X197270952Y-52446761D02*
X197366190Y-52494380D01*
X197604285Y-52494380D01*
X197699523Y-52446761D01*
X197747142Y-52351523D01*
X197747142Y-52256285D01*
X197699523Y-52161047D01*
X197604285Y-52113428D01*
X197366190Y-52113428D01*
X197270952Y-52065809D01*
X196366190Y-52494380D02*
X196366190Y-51494380D01*
X196366190Y-52446761D02*
X196461428Y-52494380D01*
X196651904Y-52494380D01*
X196747142Y-52446761D01*
X196794761Y-52399142D01*
X196842380Y-52303904D01*
X196842380Y-52018190D01*
X196794761Y-51922952D01*
X196747142Y-51875333D01*
X196651904Y-51827714D01*
X196461428Y-51827714D01*
X196366190Y-51875333D01*
D12*
X202226285Y-28688000D02*
X201512000Y-28688000D01*
X202369142Y-29116571D02*
X201869142Y-27616571D01*
X201369142Y-29116571D01*
X200869142Y-29116571D02*
X200869142Y-27616571D01*
X200012000Y-29116571D01*
X200012000Y-27616571D01*
X199369142Y-28688000D02*
X198654857Y-28688000D01*
X199512000Y-29116571D02*
X199012000Y-27616571D01*
X198512000Y-29116571D01*
X197297714Y-29116571D02*
X198012000Y-29116571D01*
X198012000Y-27616571D01*
X196512000Y-27616571D02*
X196226285Y-27616571D01*
X196083428Y-27688000D01*
X195940571Y-27830857D01*
X195869142Y-28116571D01*
X195869142Y-28616571D01*
X195940571Y-28902285D01*
X196083428Y-29045142D01*
X196226285Y-29116571D01*
X196512000Y-29116571D01*
X196654857Y-29045142D01*
X196797714Y-28902285D01*
X196869142Y-28616571D01*
X196869142Y-28116571D01*
X196797714Y-27830857D01*
X196654857Y-27688000D01*
X196512000Y-27616571D01*
X194440571Y-27688000D02*
X194583428Y-27616571D01*
X194797714Y-27616571D01*
X195012000Y-27688000D01*
X195154857Y-27830857D01*
X195226285Y-27973714D01*
X195297714Y-28259428D01*
X195297714Y-28473714D01*
X195226285Y-28759428D01*
X195154857Y-28902285D01*
X195012000Y-29045142D01*
X194797714Y-29116571D01*
X194654857Y-29116571D01*
X194440571Y-29045142D01*
X194369142Y-28973714D01*
X194369142Y-28473714D01*
X194654857Y-28473714D01*
X192726285Y-27616571D02*
X191797714Y-27616571D01*
X192297714Y-28188000D01*
X192083428Y-28188000D01*
X191940571Y-28259428D01*
X191869142Y-28330857D01*
X191797714Y-28473714D01*
X191797714Y-28830857D01*
X191869142Y-28973714D01*
X191940571Y-29045142D01*
X192083428Y-29116571D01*
X192512000Y-29116571D01*
X192654857Y-29045142D01*
X192726285Y-28973714D01*
X191154857Y-28973714D02*
X191083428Y-29045142D01*
X191154857Y-29116571D01*
X191226285Y-29045142D01*
X191154857Y-28973714D01*
X191154857Y-29116571D01*
X190583428Y-27616571D02*
X189654857Y-27616571D01*
X190154857Y-28188000D01*
X189940571Y-28188000D01*
X189797714Y-28259428D01*
X189726285Y-28330857D01*
X189654857Y-28473714D01*
X189654857Y-28830857D01*
X189726285Y-28973714D01*
X189797714Y-29045142D01*
X189940571Y-29116571D01*
X190369142Y-29116571D01*
X190512000Y-29045142D01*
X190583428Y-28973714D01*
X189154857Y-28116571D02*
X188797714Y-29116571D01*
X188440571Y-28116571D01*
X186940571Y-28116571D02*
X186369142Y-28116571D01*
X186726285Y-27616571D02*
X186726285Y-28902285D01*
X186654857Y-29045142D01*
X186512000Y-29116571D01*
X186369142Y-29116571D01*
X185654857Y-29116571D02*
X185797714Y-29045142D01*
X185869142Y-28973714D01*
X185940571Y-28830857D01*
X185940571Y-28402285D01*
X185869142Y-28259428D01*
X185797714Y-28188000D01*
X185654857Y-28116571D01*
X185440571Y-28116571D01*
X185297714Y-28188000D01*
X185226285Y-28259428D01*
X185154857Y-28402285D01*
X185154857Y-28830857D01*
X185226285Y-28973714D01*
X185297714Y-29045142D01*
X185440571Y-29116571D01*
X185654857Y-29116571D01*
X182583428Y-29116571D02*
X183440571Y-29116571D01*
X183012000Y-29116571D02*
X183012000Y-27616571D01*
X183154857Y-27830857D01*
X183297714Y-27973714D01*
X183440571Y-28045142D01*
X182083428Y-28116571D02*
X181726285Y-29116571D01*
X181369142Y-28116571D01*
X195619142Y-31666571D02*
X196119142Y-30952285D01*
X196476285Y-31666571D02*
X196476285Y-30166571D01*
X195904857Y-30166571D01*
X195762000Y-30238000D01*
X195690571Y-30309428D01*
X195619142Y-30452285D01*
X195619142Y-30666571D01*
X195690571Y-30809428D01*
X195762000Y-30880857D01*
X195904857Y-30952285D01*
X196476285Y-30952285D01*
X195047714Y-30309428D02*
X194976285Y-30238000D01*
X194833428Y-30166571D01*
X194476285Y-30166571D01*
X194333428Y-30238000D01*
X194262000Y-30309428D01*
X194190571Y-30452285D01*
X194190571Y-30595142D01*
X194262000Y-30809428D01*
X195119142Y-31666571D01*
X194190571Y-31666571D01*
X192404857Y-30880857D02*
X191262000Y-30880857D01*
X191262000Y-31309428D02*
X192404857Y-31309428D01*
X188619142Y-31666571D02*
X189476285Y-31666571D01*
X189047714Y-31666571D02*
X189047714Y-30166571D01*
X189190571Y-30380857D01*
X189333428Y-30523714D01*
X189476285Y-30595142D01*
X187690571Y-30166571D02*
X187547714Y-30166571D01*
X187404857Y-30238000D01*
X187333428Y-30309428D01*
X187262000Y-30452285D01*
X187190571Y-30738000D01*
X187190571Y-31095142D01*
X187262000Y-31380857D01*
X187333428Y-31523714D01*
X187404857Y-31595142D01*
X187547714Y-31666571D01*
X187690571Y-31666571D01*
X187833428Y-31595142D01*
X187904857Y-31523714D01*
X187976285Y-31380857D01*
X188047714Y-31095142D01*
X188047714Y-30738000D01*
X187976285Y-30452285D01*
X187904857Y-30309428D01*
X187833428Y-30238000D01*
X187690571Y-30166571D01*
X186547714Y-31666571D02*
X186547714Y-30166571D01*
X186404857Y-31095142D02*
X185976285Y-31666571D01*
X185976285Y-30666571D02*
X186547714Y-31238000D01*
X195619142Y-34216571D02*
X196119142Y-33502285D01*
X196476285Y-34216571D02*
X196476285Y-32716571D01*
X195904857Y-32716571D01*
X195762000Y-32788000D01*
X195690571Y-32859428D01*
X195619142Y-33002285D01*
X195619142Y-33216571D01*
X195690571Y-33359428D01*
X195762000Y-33430857D01*
X195904857Y-33502285D01*
X196476285Y-33502285D01*
X194190571Y-34216571D02*
X195047714Y-34216571D01*
X194619142Y-34216571D02*
X194619142Y-32716571D01*
X194762000Y-32930857D01*
X194904857Y-33073714D01*
X195047714Y-33145142D01*
X192404857Y-33430857D02*
X191262000Y-33430857D01*
X191262000Y-33859428D02*
X192404857Y-33859428D01*
X189476285Y-32859428D02*
X189404857Y-32788000D01*
X189262000Y-32716571D01*
X188904857Y-32716571D01*
X188762000Y-32788000D01*
X188690571Y-32859428D01*
X188619142Y-33002285D01*
X188619142Y-33145142D01*
X188690571Y-33359428D01*
X189547714Y-34216571D01*
X188619142Y-34216571D01*
X187262000Y-32716571D02*
X187976285Y-32716571D01*
X188047714Y-33430857D01*
X187976285Y-33359428D01*
X187833428Y-33288000D01*
X187476285Y-33288000D01*
X187333428Y-33359428D01*
X187262000Y-33430857D01*
X187190571Y-33573714D01*
X187190571Y-33930857D01*
X187262000Y-34073714D01*
X187333428Y-34145142D01*
X187476285Y-34216571D01*
X187833428Y-34216571D01*
X187976285Y-34145142D01*
X188047714Y-34073714D01*
X186547714Y-34216571D02*
X186547714Y-32716571D01*
X186404857Y-33645142D02*
X185976285Y-34216571D01*
X185976285Y-33216571D02*
X186547714Y-33788000D01*
D13*
X167513142Y-39584285D02*
X169798857Y-39584285D01*
X168656000Y-40727142D02*
X168656000Y-38441428D01*
X205867142Y-39584285D02*
X208152857Y-39584285D01*
D11*
X222249904Y-30488000D02*
X222345142Y-30440380D01*
X222488000Y-30440380D01*
X222630857Y-30488000D01*
X222726095Y-30583238D01*
X222773714Y-30678476D01*
X222821333Y-30868952D01*
X222821333Y-31011809D01*
X222773714Y-31202285D01*
X222726095Y-31297523D01*
X222630857Y-31392761D01*
X222488000Y-31440380D01*
X222392761Y-31440380D01*
X222249904Y-31392761D01*
X222202285Y-31345142D01*
X222202285Y-31011809D01*
X222392761Y-31011809D01*
X221773714Y-31440380D02*
X221773714Y-30440380D01*
X221202285Y-31440380D01*
X221202285Y-30440380D01*
X220726095Y-31440380D02*
X220726095Y-30440380D01*
X220488000Y-30440380D01*
X220345142Y-30488000D01*
X220249904Y-30583238D01*
X220202285Y-30678476D01*
X220154666Y-30868952D01*
X220154666Y-31011809D01*
X220202285Y-31202285D01*
X220249904Y-31297523D01*
X220345142Y-31392761D01*
X220488000Y-31440380D01*
X220726095Y-31440380D01*
D14*
X209960000Y-44370000D02*
X221960000Y-44370000D01*
X221960000Y-44370000D02*
X221960000Y-34370000D01*
X221960000Y-34370000D02*
X209960000Y-34370000D01*
X209960000Y-44370000D02*
X209960000Y-34370000D01*
X165960000Y-34420000D02*
X153960000Y-34420000D01*
X153960000Y-34420000D02*
X153960000Y-44420000D01*
X153960000Y-44420000D02*
X165960000Y-44420000D01*
X165960000Y-34420000D02*
X165960000Y-44420000D01*
D15*
X220218000Y-29838000D02*
X207398000Y-29838000D01*
X207398000Y-29838000D02*
X207398000Y-27058000D01*
X207398000Y-27058000D02*
X220218000Y-27058000D01*
X220218000Y-27058000D02*
X220218000Y-29838000D01*
X221488000Y-29838000D02*
X222878000Y-29838000D01*
X222878000Y-29838000D02*
X222878000Y-28448000D01*
D14*
X221312857Y-46236000D02*
X221408095Y-46188380D01*
X221550952Y-46188380D01*
X221693809Y-46236000D01*
X221789047Y-46331238D01*
X221836666Y-46426476D01*
X221884285Y-46616952D01*
X221884285Y-46759809D01*
X221836666Y-46950285D01*
X221789047Y-47045523D01*
X221693809Y-47140761D01*
X221550952Y-47188380D01*
X221455714Y-47188380D01*
X221312857Y-47140761D01*
X221265238Y-47093142D01*
X221265238Y-46759809D01*
X221455714Y-46759809D01*
X220836666Y-47188380D02*
X220836666Y-46188380D01*
X220265238Y-47188380D01*
X220265238Y-46188380D01*
X219789047Y-47188380D02*
X219789047Y-46188380D01*
X219550952Y-46188380D01*
X219408095Y-46236000D01*
X219312857Y-46331238D01*
X219265238Y-46426476D01*
X219217619Y-46616952D01*
X219217619Y-46759809D01*
X219265238Y-46950285D01*
X219312857Y-47045523D01*
X219408095Y-47140761D01*
X219550952Y-47188380D01*
X219789047Y-47188380D01*
X215979523Y-46236000D02*
X216074761Y-46188380D01*
X216217619Y-46188380D01*
X216360476Y-46236000D01*
X216455714Y-46331238D01*
X216503333Y-46426476D01*
X216550952Y-46616952D01*
X216550952Y-46759809D01*
X216503333Y-46950285D01*
X216455714Y-47045523D01*
X216360476Y-47140761D01*
X216217619Y-47188380D01*
X216122380Y-47188380D01*
X215979523Y-47140761D01*
X215931904Y-47093142D01*
X215931904Y-46759809D01*
X216122380Y-46759809D01*
X215503333Y-47188380D02*
X215503333Y-46188380D01*
X215122380Y-46188380D01*
X215027142Y-46236000D01*
X214979523Y-46283619D01*
X214931904Y-46378857D01*
X214931904Y-46521714D01*
X214979523Y-46616952D01*
X215027142Y-46664571D01*
X215122380Y-46712190D01*
X215503333Y-46712190D01*
X214503333Y-47188380D02*
X214503333Y-46188380D01*
X213836666Y-46188380D02*
X213646190Y-46188380D01*
X213550952Y-46236000D01*
X213455714Y-46331238D01*
X213408095Y-46521714D01*
X213408095Y-46855047D01*
X213455714Y-47045523D01*
X213550952Y-47140761D01*
X213646190Y-47188380D01*
X213836666Y-47188380D01*
X213931904Y-47140761D01*
X214027142Y-47045523D01*
X214074761Y-46855047D01*
X214074761Y-46521714D01*
X214027142Y-46331238D01*
X213931904Y-46236000D01*
X213836666Y-46188380D01*
X212789047Y-46188380D02*
X212693809Y-46188380D01*
X212598571Y-46236000D01*
X212550952Y-46283619D01*
X212503333Y-46378857D01*
X212455714Y-46569333D01*
X212455714Y-46807428D01*
X212503333Y-46997904D01*
X212550952Y-47093142D01*
X212598571Y-47140761D01*
X212693809Y-47188380D01*
X212789047Y-47188380D01*
X212884285Y-47140761D01*
X212931904Y-47093142D01*
X212979523Y-46997904D01*
X213027142Y-46807428D01*
X213027142Y-46569333D01*
X212979523Y-46378857D01*
X212931904Y-46283619D01*
X212884285Y-46236000D01*
X212789047Y-46188380D01*
X169727047Y-33472380D02*
X170060380Y-32996190D01*
X170298476Y-33472380D02*
X170298476Y-32472380D01*
X169917523Y-32472380D01*
X169822285Y-32520000D01*
X169774666Y-32567619D01*
X169727047Y-32662857D01*
X169727047Y-32805714D01*
X169774666Y-32900952D01*
X169822285Y-32948571D01*
X169917523Y-32996190D01*
X170298476Y-32996190D01*
X169298476Y-32948571D02*
X168965142Y-32948571D01*
X168822285Y-33472380D02*
X169298476Y-33472380D01*
X169298476Y-32472380D01*
X168822285Y-32472380D01*
X168441333Y-33424761D02*
X168298476Y-33472380D01*
X168060380Y-33472380D01*
X167965142Y-33424761D01*
X167917523Y-33377142D01*
X167869904Y-33281904D01*
X167869904Y-33186666D01*
X167917523Y-33091428D01*
X167965142Y-33043809D01*
X168060380Y-32996190D01*
X168250857Y-32948571D01*
X168346095Y-32900952D01*
X168393714Y-32853333D01*
X168441333Y-32758095D01*
X168441333Y-32662857D01*
X168393714Y-32567619D01*
X168346095Y-32520000D01*
X168250857Y-32472380D01*
X168012761Y-32472380D01*
X167869904Y-32520000D01*
X167441333Y-32948571D02*
X167108000Y-32948571D01*
X166965142Y-33472380D02*
X167441333Y-33472380D01*
X167441333Y-32472380D01*
X166965142Y-32472380D01*
X166679428Y-32472380D02*
X166108000Y-32472380D01*
X166393714Y-33472380D02*
X166393714Y-32472380D01*
X162965142Y-32520000D02*
X163060380Y-32472380D01*
X163203238Y-32472380D01*
X163346095Y-32520000D01*
X163441333Y-32615238D01*
X163488952Y-32710476D01*
X163536571Y-32900952D01*
X163536571Y-33043809D01*
X163488952Y-33234285D01*
X163441333Y-33329523D01*
X163346095Y-33424761D01*
X163203238Y-33472380D01*
X163108000Y-33472380D01*
X162965142Y-33424761D01*
X162917523Y-33377142D01*
X162917523Y-33043809D01*
X163108000Y-33043809D01*
X162488952Y-33472380D02*
X162488952Y-32472380D01*
X161917523Y-33472380D01*
X161917523Y-32472380D01*
X161441333Y-33472380D02*
X161441333Y-32472380D01*
X161203238Y-32472380D01*
X161060380Y-32520000D01*
X160965142Y-32615238D01*
X160917523Y-32710476D01*
X160869904Y-32900952D01*
X160869904Y-33043809D01*
X160917523Y-33234285D01*
X160965142Y-33329523D01*
X161060380Y-33424761D01*
X161203238Y-33472380D01*
X161441333Y-33472380D01*
X158575047Y-33186666D02*
X158098857Y-33186666D01*
X158670285Y-33472380D02*
X158336952Y-32472380D01*
X158003619Y-33472380D01*
X157670285Y-33472380D02*
X157670285Y-32472380D01*
X157098857Y-33472380D01*
X157098857Y-32472380D01*
X156670285Y-33186666D02*
X156194095Y-33186666D01*
X156765523Y-33472380D02*
X156432190Y-32472380D01*
X156098857Y-33472380D01*
X155289333Y-33472380D02*
X155765523Y-33472380D01*
X155765523Y-32472380D01*
X154765523Y-32472380D02*
X154575047Y-32472380D01*
X154479809Y-32520000D01*
X154384571Y-32615238D01*
X154336952Y-32805714D01*
X154336952Y-33139047D01*
X154384571Y-33329523D01*
X154479809Y-33424761D01*
X154575047Y-33472380D01*
X154765523Y-33472380D01*
X154860761Y-33424761D01*
X154956000Y-33329523D01*
X155003619Y-33139047D01*
X155003619Y-32805714D01*
X154956000Y-32615238D01*
X154860761Y-32520000D01*
X154765523Y-32472380D01*
X153384571Y-32520000D02*
X153479809Y-32472380D01*
X153622666Y-32472380D01*
X153765523Y-32520000D01*
X153860761Y-32615238D01*
X153908380Y-32710476D01*
X153956000Y-32900952D01*
X153956000Y-33043809D01*
X153908380Y-33234285D01*
X153860761Y-33329523D01*
X153765523Y-33424761D01*
X153622666Y-33472380D01*
X153527428Y-33472380D01*
X153384571Y-33424761D01*
X153336952Y-33377142D01*
X153336952Y-33043809D01*
X153527428Y-33043809D01*
X217962857Y-30916571D02*
X218296190Y-30916571D01*
X218296190Y-31440380D02*
X218296190Y-30440380D01*
X217820000Y-30440380D01*
X217581904Y-30440380D02*
X217010476Y-30440380D01*
X217296190Y-31440380D02*
X217296190Y-30440380D01*
X216677142Y-31440380D02*
X216677142Y-30440380D01*
X216439047Y-30440380D01*
X216296190Y-30488000D01*
X216200952Y-30583238D01*
X216153333Y-30678476D01*
X216105714Y-30868952D01*
X216105714Y-31011809D01*
X216153333Y-31202285D01*
X216200952Y-31297523D01*
X216296190Y-31392761D01*
X216439047Y-31440380D01*
X216677142Y-31440380D01*
X215677142Y-31440380D02*
X215677142Y-30440380D01*
X214534285Y-30440380D02*
X213915238Y-30440380D01*
X214248571Y-30821333D01*
X214105714Y-30821333D01*
X214010476Y-30868952D01*
X213962857Y-30916571D01*
X213915238Y-31011809D01*
X213915238Y-31249904D01*
X213962857Y-31345142D01*
X214010476Y-31392761D01*
X214105714Y-31440380D01*
X214391428Y-31440380D01*
X214486666Y-31392761D01*
X214534285Y-31345142D01*
X213486666Y-31345142D02*
X213439047Y-31392761D01*
X213486666Y-31440380D01*
X213534285Y-31392761D01*
X213486666Y-31345142D01*
X213486666Y-31440380D01*
X213105714Y-30440380D02*
X212486666Y-30440380D01*
X212820000Y-30821333D01*
X212677142Y-30821333D01*
X212581904Y-30868952D01*
X212534285Y-30916571D01*
X212486666Y-31011809D01*
X212486666Y-31249904D01*
X212534285Y-31345142D01*
X212581904Y-31392761D01*
X212677142Y-31440380D01*
X212962857Y-31440380D01*
X213058095Y-31392761D01*
X213105714Y-31345142D01*
X212200952Y-30440380D02*
X211867619Y-31440380D01*
X211534285Y-30440380D01*
X210581904Y-30440380D02*
X210248571Y-31440380D01*
X209915238Y-30440380D01*
X209153333Y-31392761D02*
X209248571Y-31440380D01*
X209439047Y-31440380D01*
X209534285Y-31392761D01*
X209581904Y-31345142D01*
X209629523Y-31249904D01*
X209629523Y-30964190D01*
X209581904Y-30868952D01*
X209534285Y-30821333D01*
X209439047Y-30773714D01*
X209248571Y-30773714D01*
X209153333Y-30821333D01*
X208296190Y-31392761D02*
X208391428Y-31440380D01*
X208581904Y-31440380D01*
X208677142Y-31392761D01*
X208724761Y-31345142D01*
X208772380Y-31249904D01*
X208772380Y-30964190D01*
X208724761Y-30868952D01*
X208677142Y-30821333D01*
X208581904Y-30773714D01*
X208391428Y-30773714D01*
X208296190Y-30821333D01*
X206915238Y-30440380D02*
X206724761Y-30440380D01*
X206629523Y-30488000D01*
X206534285Y-30583238D01*
X206486666Y-30773714D01*
X206486666Y-31107047D01*
X206534285Y-31297523D01*
X206629523Y-31392761D01*
X206724761Y-31440380D01*
X206915238Y-31440380D01*
X207010476Y-31392761D01*
X207105714Y-31297523D01*
X207153333Y-31107047D01*
X207153333Y-30773714D01*
X207105714Y-30583238D01*
X207010476Y-30488000D01*
X206915238Y-30440380D01*
X206058095Y-31440380D02*
X206058095Y-30440380D01*
X205486666Y-31440380D01*
X205486666Y-30440380D01*
X204534285Y-31440380D02*
X205010476Y-31440380D01*
X205010476Y-30440380D01*
X204010476Y-30964190D02*
X204010476Y-31440380D01*
X204343809Y-30440380D02*
X204010476Y-30964190D01*
X203677142Y-30440380D01*
X203343809Y-31345142D02*
X203296190Y-31392761D01*
X203343809Y-31440380D01*
X203391428Y-31392761D01*
X203343809Y-31345142D01*
X203343809Y-31440380D01*
X203343809Y-31059428D02*
X203391428Y-30488000D01*
X203343809Y-30440380D01*
X203296190Y-30488000D01*
X203343809Y-31059428D01*
X203343809Y-30440380D01*
X192826190Y-46494000D02*
X192921428Y-46446380D01*
X193064285Y-46446380D01*
X193207142Y-46494000D01*
X193302380Y-46589238D01*
X193350000Y-46684476D01*
X193397619Y-46874952D01*
X193397619Y-47017809D01*
X193350000Y-47208285D01*
X193302380Y-47303523D01*
X193207142Y-47398761D01*
X193064285Y-47446380D01*
X192969047Y-47446380D01*
X192826190Y-47398761D01*
X192778571Y-47351142D01*
X192778571Y-47017809D01*
X192969047Y-47017809D01*
X192350000Y-47446380D02*
X192350000Y-46446380D01*
X191969047Y-46446380D01*
X191873809Y-46494000D01*
X191826190Y-46541619D01*
X191778571Y-46636857D01*
X191778571Y-46779714D01*
X191826190Y-46874952D01*
X191873809Y-46922571D01*
X191969047Y-46970190D01*
X192350000Y-46970190D01*
X191350000Y-47446380D02*
X191350000Y-46446380D01*
X190683333Y-46446380D02*
X190492857Y-46446380D01*
X190397619Y-46494000D01*
X190302380Y-46589238D01*
X190254761Y-46779714D01*
X190254761Y-47113047D01*
X190302380Y-47303523D01*
X190397619Y-47398761D01*
X190492857Y-47446380D01*
X190683333Y-47446380D01*
X190778571Y-47398761D01*
X190873809Y-47303523D01*
X190921428Y-47113047D01*
X190921428Y-46779714D01*
X190873809Y-46589238D01*
X190778571Y-46494000D01*
X190683333Y-46446380D01*
X189350000Y-46446380D02*
X189826190Y-46446380D01*
X189873809Y-46922571D01*
X189826190Y-46874952D01*
X189730952Y-46827333D01*
X189492857Y-46827333D01*
X189397619Y-46874952D01*
X189350000Y-46922571D01*
X189302380Y-47017809D01*
X189302380Y-47255904D01*
X189350000Y-47351142D01*
X189397619Y-47398761D01*
X189492857Y-47446380D01*
X189730952Y-47446380D01*
X189826190Y-47398761D01*
X189873809Y-47351142D01*
X208994190Y-46236000D02*
X209089428Y-46188380D01*
X209232285Y-46188380D01*
X209375142Y-46236000D01*
X209470380Y-46331238D01*
X209518000Y-46426476D01*
X209565619Y-46616952D01*
X209565619Y-46759809D01*
X209518000Y-46950285D01*
X209470380Y-47045523D01*
X209375142Y-47140761D01*
X209232285Y-47188380D01*
X209137047Y-47188380D01*
X208994190Y-47140761D01*
X208946571Y-47093142D01*
X208946571Y-46759809D01*
X209137047Y-46759809D01*
X208518000Y-47188380D02*
X208518000Y-46188380D01*
X208137047Y-46188380D01*
X208041809Y-46236000D01*
X207994190Y-46283619D01*
X207946571Y-46378857D01*
X207946571Y-46521714D01*
X207994190Y-46616952D01*
X208041809Y-46664571D01*
X208137047Y-46712190D01*
X208518000Y-46712190D01*
X207518000Y-47188380D02*
X207518000Y-46188380D01*
X206851333Y-46188380D02*
X206660857Y-46188380D01*
X206565619Y-46236000D01*
X206470380Y-46331238D01*
X206422761Y-46521714D01*
X206422761Y-46855047D01*
X206470380Y-47045523D01*
X206565619Y-47140761D01*
X206660857Y-47188380D01*
X206851333Y-47188380D01*
X206946571Y-47140761D01*
X207041809Y-47045523D01*
X207089428Y-46855047D01*
X207089428Y-46521714D01*
X207041809Y-46331238D01*
X206946571Y-46236000D01*
X206851333Y-46188380D01*
X205565619Y-46521714D02*
X205565619Y-47188380D01*
X205803714Y-46140761D02*
X206041809Y-46855047D01*
X205422761Y-46855047D01*
X185840666Y-47442380D02*
X186174000Y-46966190D01*
X186412095Y-47442380D02*
X186412095Y-46442380D01*
X186031142Y-46442380D01*
X185935904Y-46490000D01*
X185888285Y-46537619D01*
X185840666Y-46632857D01*
X185840666Y-46775714D01*
X185888285Y-46870952D01*
X185935904Y-46918571D01*
X186031142Y-46966190D01*
X186412095Y-46966190D01*
X185507333Y-46442380D02*
X184840666Y-47442380D01*
X184840666Y-46442380D02*
X185507333Y-47442380D01*
X175259904Y-32472380D02*
X174688476Y-32472380D01*
X174974190Y-33472380D02*
X174974190Y-32472380D01*
X174450380Y-32472380D02*
X173783714Y-33472380D01*
X173783714Y-32472380D02*
X174450380Y-33472380D01*
M02*
