M48
;DRILL file {KiCad 5.0.0-rc2-dev-unknown-r12647-81843c37} date Mon May 28 15:16:30 2018
;FORMAT={-:-/ absolute / inch / decimal}
FMAT,2
INCH,TZ
T1C0.0130
T2C0.0394
%
G90
G05
M72
T1
X6.14Y-1.16
X6.3Y-1.93
X6.6281Y-1.16
X6.63Y-1.37
X6.64Y-1.93
X6.87Y-1.16
X7.Y-1.93
X7.3Y-2.03
X7.5235Y-2.0302
X7.83Y-1.93
X8.16Y-1.98
X8.21Y-1.55
X8.4419Y-1.98
T2
X8.22Y-1.12
X8.32Y-1.12
X8.42Y-1.12
X8.52Y-1.12
X8.62Y-1.12
X8.72Y-1.12
T2
X6.1551Y-1.5663G85X6.1551Y-1.5337
G05
X6.4551Y-1.4663G85X6.4551Y-1.4337
G05
X6.4551Y-1.6663G85X6.4551Y-1.6337
G05
X8.3402Y-1.4663G85X8.3402Y-1.4337
G05
X8.3402Y-1.6663G85X8.3402Y-1.6337
G05
X8.6402Y-1.5663G85X8.6402Y-1.5337
G05
T0
M30
